HIERARCHY
ROOT Hips
{
	OFFSET 0.000000 1.471914 24.280096
	CHANNELS 6 Xposition Yposition Zposition Xrotation Yrotation Zrotation
	JOINT Spine
	{
		OFFSET 0.000000 0.900110 1.860670
		CHANNELS 6 Xposition Yposition Zposition Xrotation Yrotation Zrotation
		JOINT Spine1
		{
			OFFSET 0.000000 0.400320 2.270309
			CHANNELS 6 Xposition Yposition Zposition Xrotation Yrotation Zrotation
			JOINT Spine2
			{
				OFFSET 0.000000 0.200920 2.296560
				CHANNELS 6 Xposition Yposition Zposition Xrotation Yrotation Zrotation
				JOINT Spine3
				{
					OFFSET 0.000000 0.000000 2.305330
					CHANNELS 6 Xposition Yposition Zposition Xrotation Yrotation Zrotation
					JOINT Neck
					{
						OFFSET 0.000000 -0.864490 6.051487
						CHANNELS 6 Xposition Yposition Zposition Xrotation Yrotation Zrotation
						JOINT Head
						{
							OFFSET 0.000000 -0.550429 3.121674
							CHANNELS 6 Xposition Yposition Zposition Xrotation Yrotation Zrotation
							End Site
							{
								OFFSET 0.000000 0.000000 3.731750
							}
						}
					}
					JOINT RightShoulder
					{
						OFFSET -0.788280 -1.313800 4.256718
						CHANNELS 6 Xposition Yposition Zposition Xrotation Yrotation Zrotation
						JOINT RightArm
						{
							OFFSET -3.915130 0.000000 0.000000
							CHANNELS 6 Xposition Yposition Zposition Xrotation Yrotation Zrotation
							JOINT RightForeArm
							{
								OFFSET -6.914910 0.000000 0.000000
								CHANNELS 6 Xposition Yposition Zposition Xrotation Yrotation Zrotation
								JOINT RightHand
								{
									OFFSET -6.096219 0.000000 0.000000
									CHANNELS 6 Xposition Yposition Zposition Xrotation Yrotation Zrotation
									JOINT RightHandEnd
									{
										OFFSET -1.749950 0.000000 0.000000
										CHANNELS 6 Xposition Yposition Zposition Xrotation Yrotation Zrotation
										End Site
										{
											OFFSET -1.749950 0.000000 0.000000
										}
									}
									JOINT RightHandThumb1
									{
										OFFSET -0.699980 -1.166630 -0.466648
										CHANNELS 6 Xposition Yposition Zposition Xrotation Yrotation Zrotation
										End Site
										{
											OFFSET -1.690319 -0.452920 0.000000
										}
									}
								}
							}
						}
					}
					JOINT LeftShoulder
					{
						OFFSET 0.788280 -1.313800 4.256718
						CHANNELS 6 Xposition Yposition Zposition Xrotation Yrotation Zrotation
						JOINT LeftArm
						{
							OFFSET 3.915130 0.000000 0.000000
							CHANNELS 6 Xposition Yposition Zposition Xrotation Yrotation Zrotation
							JOINT LeftForeArm
							{
								OFFSET 6.914910 0.000000 0.000000
								CHANNELS 6 Xposition Yposition Zposition Xrotation Yrotation Zrotation
								JOINT LeftHand
								{
									OFFSET 6.096219 0.000000 0.000000
									CHANNELS 6 Xposition Yposition Zposition Xrotation Yrotation Zrotation
									JOINT LeftHandEnd
									{
										OFFSET 1.749950 0.000000 0.000000
										CHANNELS 6 Xposition Yposition Zposition Xrotation Yrotation Zrotation
										End Site
										{
											OFFSET 1.749950 0.000000 0.000000
										}
									}
									JOINT LeftHandThumb1
									{
										OFFSET 0.699980 -1.166630 -0.466648
										CHANNELS 6 Xposition Yposition Zposition Xrotation Yrotation Zrotation
										End Site
										{
											OFFSET 1.690319 -0.452920 0.000000
										}
									}
								}
							}
						}
					}
				}
			}
		}
	}
	JOINT RightUpLeg
	{
		OFFSET -2.338570 -0.252550 -0.551512
		CHANNELS 6 Xposition Yposition Zposition Xrotation Yrotation Zrotation
		JOINT RightLeg
		{
			OFFSET 0.000000 0.000000 -10.744959
			CHANNELS 6 Xposition Yposition Zposition Xrotation Yrotation Zrotation
			JOINT RightFoot
			{
				OFFSET 0.000000 -0.000001 -10.930849
				CHANNELS 6 Xposition Yposition Zposition Xrotation Yrotation Zrotation
				JOINT RightToeBase
				{
					OFFSET 0.000000 -4.087269 -1.487650
					CHANNELS 6 Xposition Yposition Zposition Xrotation Yrotation Zrotation
					End Site
					{
						OFFSET 0.000000 -1.891870 0.000000
					}
				}
			}
		}
	}
	JOINT LeftUpLeg
	{
		OFFSET 2.338570 -0.252550 -0.551512
		CHANNELS 6 Xposition Yposition Zposition Xrotation Yrotation Zrotation
		JOINT LeftLeg
		{
			OFFSET 0.000000 0.000000 -10.744959
			CHANNELS 6 Xposition Yposition Zposition Xrotation Yrotation Zrotation
			JOINT LeftFoot
			{
				OFFSET 0.000000 -0.000001 -10.930849
				CHANNELS 6 Xposition Yposition Zposition Xrotation Yrotation Zrotation
				JOINT LeftToeBase
				{
					OFFSET 0.000000 -4.087269 -1.487650
					CHANNELS 6 Xposition Yposition Zposition Xrotation Yrotation Zrotation
					End Site
					{
						OFFSET 0.000000 -1.891870 0.000000
					}
				}
			}
		}
	}
}
MOTION
Frames: 4
Frame Time: 0.041667
0.000024 26.556528 40.371941 -9.031666 8.057311 -24.345436 0.000003 0.900103 1.860679 12.452128 -7.100154 -0.766179 -0.000002 0.400312 2.270311 -0.000005 0.000001 -0.000000 0.000013 0.200944 2.296574 0.000001 -0.000000 0.000000 0.000003 -0.000019 2.305326 0.000006 -0.000000 -3.684591 -0.000002 -0.864475 6.051504 22.640472 3.105786 185.201481 0.000001 -0.550423 3.121681 0.000001 0.000000 0.000004 -0.788278 -1.313778 4.256753 -180.117676 43.715676 -41.297858 -3.915120 -0.000004 0.000000 -0.000001 -0.000007 -0.000001 -6.914885 -0.000002 0.000013 -0.000003 -0.000020 -81.657336 -6.096212 0.000010 -0.000010 0.000029 0.000074 -0.000003 -1.749966 0.000001 0.000001 -0.000001 -0.000003 0.000006 -0.700005 -1.166627 -0.466633 0.000000 -0.000001 0.000001 0.788269 -1.313800 4.256737 -201.307094 -42.145512 48.212922 3.915138 -0.000003 0.000019 0.000001 0.000001 0.000001 6.914897 0.000021 -0.000016 0.000003 0.000003 64.555096 6.096231 0.000009 -0.000009 0.000035 -0.000085 -0.000013 1.749940 0.000008 -0.000006 -0.000003 0.000001 -0.000002 0.699970 -1.166611 -0.466670 0.000011 -0.000006 -0.000007 -2.338572 -0.252551 -0.551507 14.349189 -1.953382 -0.868841 0.000006 -0.000004 -10.744961 12.344179 3.892552 -1.137201 0.000003 0.000011 -10.930862 -0.000005 -0.000005 -0.000006 0.000011 -4.087273 -1.487650 0.000002 0.000002 -0.000002 2.338571 -0.252551 -0.551480 15.446780 -4.341386 -0.940084 -0.000005 -0.000006 -10.744938 15.045215 -1.052345 -2.021739 -0.000000 0.000010 -10.930844 -0.000014 -0.000000 0.000000 0.000004 -4.087264 -1.487654 -0.000003 -0.000001 -0.000005 
0.000041 26.556524 40.371948 -10.261959 8.380620 -24.551704 0.000004 0.900103 1.860676 14.182418 -6.622293 -0.971686 -0.000003 0.400313 2.270309 -0.000003 0.000001 0.000001 0.000012 0.200941 2.296574 0.000001 -0.000000 -0.000004 0.000002 -0.000020 2.305334 0.000007 -0.000001 -2.707488 -0.000004 -0.864469 6.051508 19.978916 3.443179 185.852152 0.000001 -0.550424 3.121685 0.000002 0.000001 0.000001 -0.788279 -1.313772 4.256750 -170.751314 49.262709 -44.698827 -3.915125 -0.000002 0.000003 -0.000000 0.000000 -0.000001 -6.914886 -0.000001 0.000009 -0.000005 -0.000024 -86.398061 -6.096212 0.000008 0.000006 0.000024 0.000079 -0.000003 -1.749963 0.000002 -0.000001 -0.000001 -0.000001 0.000003 -0.700010 -1.166627 -0.466637 0.000000 -0.000002 -0.000000 0.788271 -1.313796 4.256735 -186.645383 -41.975925 53.144507 3.915145 -0.000013 0.000003 -0.000005 0.000002 0.000003 6.914899 0.000014 -0.000014 -0.000000 0.000006 69.768989 6.096231 0.000011 -0.000005 0.000035 -0.000082 -0.000018 1.749940 0.000004 -0.000002 0.000003 -0.000001 0.000002 0.699968 -1.166613 -0.466675 0.000008 -0.000003 -0.000006 -2.338571 -0.252552 -0.551504 16.144033 -1.646353 -1.088434 0.000006 -0.000003 -10.744961 12.208574 2.340531 -1.137699 0.000004 0.000010 -10.930863 -0.000002 -0.000003 -0.000005 0.000008 -4.087274 -1.487652 0.000006 0.000000 0.000001 2.338574 -0.252553 -0.551480 16.157229 -3.236846 -1.094592 -0.000002 -0.000006 -10.744951 16.618902 -4.101178 -2.033603 0.000000 0.000006 -10.930841 -0.000012 -0.000000 -0.000001 0.000005 -4.087258 -1.487651 0.000002 -0.000001 -0.000004 
0.000047 26.556534 40.371994 -11.816840 10.089681 -25.294772 0.000004 0.900097 1.860679 17.047759 -7.267386 -1.021762 -0.000004 0.400314 2.270309 -0.000005 0.000001 0.000001 0.000011 0.200938 2.296566 0.000001 -0.000000 -0.000000 0.000004 -0.000019 2.305326 0.000005 -0.000003 -2.746568 -0.000004 -0.864467 6.051500 16.910964 4.377789 187.829355 -0.000000 -0.550428 3.121689 0.000000 -0.000002 0.000002 -0.788280 -1.313769 4.256749 -156.176428 49.624138 -56.047836 -3.915117 -0.000005 0.000004 -0.000000 -0.000006 0.000000 -6.914889 -0.000006 0.000018 -0.000008 -0.000021 -88.590784 -6.096215 0.000008 0.000006 0.000031 0.000076 -0.000002 -1.749966 0.000004 -0.000007 0.000001 -0.000000 0.000005 -0.700007 -1.166630 -0.466637 0.000000 0.000003 -0.000003 0.788271 -1.313793 4.256733 -176.253250 -43.002195 57.972986 3.915143 -0.000008 0.000011 0.000000 0.000002 0.000003 6.914896 0.000016 -0.000013 0.000001 0.000006 71.046146 6.096231 0.000005 -0.000007 0.000033 -0.000082 -0.000015 1.749944 0.000005 -0.000005 -0.000001 -0.000003 0.000001 0.699973 -1.166615 -0.466672 0.000006 -0.000008 -0.000006 -2.338572 -0.252556 -0.551505 18.673659 -2.491248 -1.101419 0.000006 -0.000002 -10.744965 11.906980 1.776161 -1.181419 0.000003 0.000012 -10.930865 -0.000003 -0.000003 -0.000003 0.000005 -4.087269 -1.487651 0.000005 0.000000 -0.000001 2.338572 -0.252555 -0.551482 17.302358 -2.912604 -1.025811 -0.000003 -0.000007 -10.744945 19.894912 -6.890196 -2.159550 -0.000002 0.000013 -10.930840 -0.000015 0.000001 0.000002 0.000003 -4.087260 -1.487658 0.000000 -0.000001 -0.000006 
0.000066 26.556522 40.372017 -13.089347 11.027690 -25.624874 0.000003 0.900098 1.860686 19.350086 -7.104452 -1.105864 -0.000001 0.400317 2.270308 -0.000005 0.000001 -0.000002 0.000013 0.200935 2.296562 0.000002 0.000000 0.000003 0.000002 -0.000016 2.305334 0.000004 0.000001 -2.111311 -0.000003 -0.864465 6.051504 14.343040 3.623318 188.967702 0.000001 -0.550421 3.121681 0.000001 -0.000000 0.000002 -0.788276 -1.313764 4.256754 -144.999138 48.844107 -62.820801 -3.915114 -0.000008 0.000008 -0.000001 -0.000006 -0.000000 -6.914882 -0.000001 0.000014 -0.000008 -0.000026 -91.414241 -6.096214 0.000012 0.000010 0.000027 0.000078 -0.000005 -1.749963 0.000007 -0.000008 -0.000001 0.000001 0.000004 -0.700008 -1.166628 -0.466637 0.000002 0.000003 -0.000002 0.788270 -1.313787 4.256733 -164.199237 -37.300322 63.684452 3.915143 -0.000009 0.000015 -0.000000 0.000004 0.000004 6.914893 0.000015 -0.000009 -0.000000 0.000002 67.293018 6.096229 0.000003 -0.000004 0.000038 -0.000091 -0.000015 1.749938 0.000002 -0.000004 -0.000000 0.000001 -0.000000 0.699967 -1.166618 -0.466668 0.000011 -0.000008 -0.000008 -2.338572 -0.252556 -0.551502 20.560483 -2.844239 -1.158290 0.000005 -0.000004 -10.744963 12.179484 1.432407 -1.247011 0.000003 0.000010 -10.930866 -0.000007 -0.000005 -0.000004 0.000007 -4.087270 -1.487648 -0.000001 -0.000000 0.000001 2.338571 -0.252553 -0.551471 18.026005 -2.088558 -1.021430 -0.000004 -0.000003 -10.744948 22.177261 -8.204054 -2.024053 -0.000001 0.000008 -10.930840 -0.000014 0.000002 0.000001 0.000002 -4.087257 -1.487652 -0.000001 -0.000001 -0.000006 
